<svg aria-hidden="true" width="0" height="0" style="position:absolute"><symbol fill="none" viewBox="0 0 36 36" id="2259d0575198e58d28ec90b651ebe7e5" xmlns="http://www.w3.org/2000/svg"><path d="M14 9l9 9-9 9" stroke="#222" stroke-width="2"/></symbol><symbol viewBox="0 0 24 24" fill="none" id="6b1ca9a9b138f79a829f2c36ff421eca" xmlns="http://www.w3.org/2000/svg"><path d="M12 23.025c6.089 0 11.025-4.936 11.025-11.025S18.089.975 12 .975.975 5.911.975 12 5.911 23.025 12 23.025z" stroke="#EE4648" stroke-width="2"/><path d="M11.992 16.75c.46 0 .758.321.758.743 0 .44-.303.758-.758.758-.434 0-.742-.312-.742-.758 0-.427.303-.742.742-.742zm.458-8.763l-.175 5.262h-.55l-.175-5.262V6.75h.9v1.237z" fill="#EE4648" stroke="#EE4648"/></symbol><symbol viewBox="0 0 24 24" fill="none" id="9dd8c24711ce0d9fec821e7fa9005bcc" xmlns="http://www.w3.org/2000/svg"><path d="M9.868 14.328l.35.334.345-.337L16.946 8.1l.64.63-7.403 7.228-3.176-3.11.637-.648 2.224 2.128z" stroke="#00C789"/></symbol><symbol viewBox="0 0 24 24" fill="none" id="a297941c313f45945207c7349e0644ed" xmlns="http://www.w3.org/2000/svg"><path d="M11.992 16.75c.46 0 .758.321.758.743 0 .44-.303.758-.758.758-.434 0-.742-.312-.742-.758 0-.427.303-.742.742-.742zm.458-8.763l-.175 5.262h-.55l-.175-5.262V6.75h.9v1.237z" fill="#EE4648" stroke="#EE4648"/></symbol><symbol viewBox="0 0 48 48" id="aef7a26344fa79131df7ff0ca3c4b695" xmlns="http://www.w3.org/2000/svg"><defs><linearGradient id="ea" x1="89.861%" x2="0%" y1="9.984%" y2="100%"><stop offset="0%" stop-color="#9C9C9C"/><stop offset="39.023%" stop-color="#7E7E7E"/><stop offset="100%" stop-color="#D2D2D2"/></linearGradient><linearGradient id="eb" x1="152.805%" x2="29.184%" y1="161.921%" y2="20.158%"><stop offset="0%" stop-color="#8C8C8C"/><stop offset="100%" stop-color="#D2D2D2"/></linearGradient></defs><g fill="none"><path fill="#FF33B2" d="M27.383 10.744c2.268 0 4.08 1.24 4.747 1.956.846.909 2.193 2.601 1.6 5.867-.254 1.394-1.2 2.59-2.174 3.463l3.378 3.373c1.726-1.54 3.37-3.816 3.793-6.39.283-1.72.603-4.52-1.896-8.23-1.586-2.356-4.752-3.86-6.086-4.249-2.827-.826-6.105-.218-6.652-.06-2.256.652-3.947 1.675-5.189 2.92l3.548 3.543c.966-1.207 2.516-2.13 4.93-2.193"/><path fill="url(#ea)" d="M22.656 17.014c-1.228.768-3.06 1.486-5.682 2.523l-4.636 1.768-.927.347c-2.537.943-6.78 2.521-9.025 5.48C.538 29.566.214 32.438.16 33.56l-.006.126h4.967l.01-.112c.067-.84.323-2.437 1.28-3.698 1.39-1.835 4.914-3.145 6.816-3.853l1.558-.58 4.63-1.78c2.525-1.01 4.295-1.895 5.66-2.646a12.708 12.708 0 002.31-1.65l-3.378-3.373c-.47.42-.944.766-1.35 1.02" transform="translate(7.5 6)"/><path fill="url(#eb)" d="M8.504 12.644c.463 4.528 3.636 8.355 3.852 8.723l2.447 4.136a156.36 156.36 0 011.717 2.96c1.342 2.41 1.532 4.269 1.527 5.162v.122h4.961v-.12c.002-1.63-.36-4.23-2.103-7.356-.383-.688-.89-1.56-1.472-2.547l-2.44-4.125c-.326-.584-2.967-3.965-3.458-7.455-.176-1.25.036-3.496 1.386-5.182l-3.547-3.543c-2.549 2.556-3.194 6.053-2.87 9.225" transform="translate(7.5 6)"/></g></symbol><symbol fill="none" viewBox="0 0 26 26" id="e447796a11b1163b1bbc887333a1e113" xmlns="http://www.w3.org/2000/svg"><path d="M1.86 20.904a.935.935 0 100-1.87.935.935 0 000 1.87z" fill="#249DCB"/><path d="M24.54 8.044a.935.935 0 100-1.871.935.935 0 000 1.87z" fill="#E30A7D"/><path d="M24.19 3.016c-.468-.468-1.286-.468-1.754 0l-1.87 1.87-1.754 1.754c-.468.468-1.286.468-1.754 0-.468-.468-.468-1.286 0-1.754l.819-1.052c.467-.468.467-1.286 0-1.754-.468-.467-1.287-.467-1.754 0L3.729 14.474c-.467.467-.467 1.286 0 1.753.468.468 1.286.468 1.754 0l1.403-1.403c.468-.467 1.286-.467 1.754 0 .468.468.468 1.286 0 1.754l-6.314 6.314c-.467.467-.467 1.286 0 1.753.468.468 1.286.468 1.754 0l2.105-1.987c.467-.468 1.286-.468 1.753 0 .468.467 1.287.467 1.754 0l1.87-1.87c.469-.468 1.287-.468 1.755 0 .467.467 1.286.467 1.753 0l8.886-8.887c.468-.467.468-1.286 0-1.753-.468-.468-1.286-.468-1.754 0l-.117.117L20.8 11.55c-.467.467-1.286.467-1.753 0-.468-.468-.468-1.287 0-1.754l1.52-1.52 3.39-3.39c.702-.585.702-1.404.234-1.871z" fill="url(#fpaint0_linear_466_25306)"/><defs><linearGradient id="fpaint0_linear_466_25306" x1="-1.661" y1="17.08" x2="30.658" y2="7.095" gradientUnits="userSpaceOnUse"><stop offset=".204" stop-color="#249DCB"/><stop offset=".814" stop-color="#E3097D"/></linearGradient></defs></symbol><symbol viewBox="0 0 24 24" fill="none" id="f254178652f54368ab7e470f3d10ee93" xmlns="http://www.w3.org/2000/svg"><g stroke="#00C789"><path d="M12 23c6.075 0 11-4.925 11-11S18.075 1 12 1 1 5.925 1 12s4.925 11 11 11z" stroke-width="2"/><path d="M9.868 14.328l.35.334.345-.337L16.946 8.1l.64.63-7.403 7.228-3.176-3.11.637-.648 2.224 2.128z"/></g></symbol><symbol viewBox="0 0 36 36" id="f6493f383c749f0c4449896d380af33d" xmlns="http://www.w3.org/2000/svg"><g stroke="#fff" stroke-width="2" transform="translate(6 6)" fill="none"><circle cx="9.4" cy="16" r="5"/><circle cx="21.6" cy="20.8" r="2.4"/><circle cx="20.8" cy="3.2" r="3.2"/><circle cx="3.2" cy="4.8" r="3.2"/><path stroke-linecap="square" d="M13 12l5.4-6.4M6 11L4.6 8M14 18l5 2"/></g></symbol></svg>