<svg width="26" height="26" viewBox="0 0 26 26" fill="none" xmlns="http://www.w3.org/2000/svg">
<path d="M1.85917 20.9039C2.37575 20.9039 2.79452 20.4851 2.79452 19.9685C2.79452 19.452 2.37575 19.0332 1.85917 19.0332C1.3426 19.0332 0.923828 19.452 0.923828 19.9685C0.923828 20.4851 1.3426 20.9039 1.85917 20.9039Z" fill="#249DCB"/>
<path d="M24.5408 8.04354C25.0574 8.04354 25.4762 7.62477 25.4762 7.1082C25.4762 6.59162 25.0574 6.17285 24.5408 6.17285C24.0242 6.17285 23.6055 6.59162 23.6055 7.1082C23.6055 7.62477 24.0242 8.04354 24.5408 8.04354Z" fill="#E30A7D"/>
<path d="M24.19 3.01559C23.7224 2.54792 22.9039 2.54792 22.4363 3.01559L20.5656 4.88628L18.8118 6.64005C18.3441 7.10773 17.5257 7.10773 17.058 6.64005C16.5904 6.17238 16.5904 5.35396 17.058 4.88628L17.8765 3.83402C18.3441 3.36635 18.3441 2.54792 17.8765 2.08025C17.4088 1.61257 16.5904 1.61257 16.1227 2.08025L3.72936 14.4736C3.26169 14.9412 3.26169 15.7597 3.72936 16.2273C4.19703 16.695 5.01546 16.695 5.48313 16.2273L6.88615 14.8243C7.35382 14.3567 8.17225 14.3567 8.63992 14.8243C9.10759 15.292 9.10759 16.1104 8.63992 16.5781L2.32634 22.8917C1.85867 23.3594 1.85867 24.1778 2.32634 24.6455C2.79401 25.1131 3.61244 25.1131 4.08011 24.6455L6.18464 22.6578C6.65231 22.1902 7.47074 22.1902 7.93841 22.6578C8.40608 23.1255 9.22451 23.1255 9.69218 22.6578L11.5629 20.7872C12.0305 20.3195 12.849 20.3195 13.3166 20.7872C13.7843 21.2548 14.6027 21.2548 15.0704 20.7872L23.9562 11.9014C24.4239 11.4337 24.4239 10.6153 23.9562 10.1476C23.4885 9.67993 22.6701 9.67993 22.2024 10.1476L22.0855 10.2645L20.7994 11.5506C20.3317 12.0183 19.5133 12.0183 19.0456 11.5506C18.578 11.0829 18.578 10.2645 19.0456 9.79685L20.5656 8.27691L23.9562 4.88628C24.6577 4.30169 24.6577 3.48326 24.19 3.01559Z" fill="url(#paint0_linear_466_25306)"/>
<defs>
<linearGradient id="paint0_linear_466_25306" x1="-1.6611" y1="17.0801" x2="30.6584" y2="7.09547" gradientUnits="userSpaceOnUse">
<stop offset="0.2045" stop-color="#249DCB"/>
<stop offset="0.8137" stop-color="#E3097D"/>
</linearGradient>
</defs>
</svg>
