<svg xmlns="http://www.w3.org/2000/svg" width="48" height="48" viewBox="0 0 48 48">
    <defs>
        <linearGradient id="a" x1="89.861%" x2="0%" y1="9.984%" y2="100%">
            <stop offset="0%" stop-color="#9C9C9C"/>
            <stop offset="39.023%" stop-color="#7E7E7E"/>
            <stop offset="100%" stop-color="#D2D2D2"/>
        </linearGradient>
        <linearGradient id="b" x1="152.805%" x2="29.184%" y1="161.921%" y2="20.158%">
            <stop offset="0%" stop-color="#8C8C8C"/>
            <stop offset="100%" stop-color="#D2D2D2"/>
        </linearGradient>
    </defs>
    <g fill="none" fill-rule="nonzero">
        <path fill="#FF33B2" d="M27.383 10.744c2.268 0 4.08 1.24 4.747 1.956.846.909 2.193 2.601 1.6 5.867-.254 1.394-1.2 2.59-2.174 3.463l3.378 3.373c1.726-1.54 3.37-3.816 3.793-6.39.283-1.72.603-4.52-1.896-8.23-1.586-2.356-4.752-3.86-6.086-4.249-2.827-.826-6.105-.218-6.652-.06-2.256.652-3.947 1.675-5.189 2.92l3.548 3.543c.966-1.207 2.516-2.13 4.93-2.193"/>
        <path fill="url(#a)" d="M22.656 17.014c-1.228.768-3.06 1.486-5.682 2.523l-4.636 1.768-.927.347c-2.537.943-6.78 2.521-9.025 5.48C.538 29.566.214 32.438.16 33.56l-.006.126h4.967l.01-.112c.067-.84.323-2.437 1.28-3.698 1.39-1.835 4.914-3.145 6.816-3.853l1.558-.58 4.63-1.78c2.525-1.01 4.295-1.895 5.66-2.646.755-.415 1.551-.972 2.31-1.65l-3.378-3.373c-.47.42-.944.766-1.35 1.02" transform="translate(7.5 6)"/>
        <path fill="url(#b)" d="M8.504 12.644c.463 4.528 3.636 8.355 3.852 8.723l2.447 4.136c.684 1.159 1.282 2.181 1.717 2.96 1.342 2.41 1.532 4.269 1.527 5.162v.122h4.961v-.12c.002-1.63-.36-4.23-2.103-7.356-.383-.688-.89-1.56-1.472-2.547l-2.44-4.125c-.326-.584-2.967-3.965-3.458-7.455-.176-1.25.036-3.496 1.386-5.182l-3.547-3.543c-2.549 2.556-3.194 6.053-2.87 9.225" transform="translate(7.5 6)"/>
    </g>
</svg>
