<svg width="24" viewBox="0 0 24 24" fill="none" xmlns="http://www.w3.org/2000/svg">
<path d="M12 23.0249C18.089 23.0249 23.025 18.0889 23.025 12C23.025 5.91104 18.089 0.974976 12 0.974976C5.91105 0.974976 0.974991 5.91104 0.974991 12C0.974991 18.0889 5.91105 23.0249 12 23.0249Z" stroke="#EE4648" stroke-width="2"/>
<path d="M11.9925 16.7505C12.4524 16.7505 12.75 17.0713 12.75 17.493C12.75 17.9337 12.447 18.2505 11.9925 18.2505C11.5579 18.2505 11.25 17.9386 11.25 17.493C11.25 17.0662 11.5525 16.7505 11.9925 16.7505ZM12.45 7.98703L12.275 13.2495H11.725L11.55 7.98703V6.75H12.45V7.98703Z" fill="#EE4648" stroke="#EE4648"/>
</svg>
